U+2194_Matriz.ufo
<glyph name="exclam" format="1">
  <advance width="833"/>
  <unicode hex="0021"/>
  <outline>
    <contour>
      <point x="331" y="801" type="move"/>
      <point x="331" y="201" type="line"/>
    </contour>
    <contour>
      <point x="331" y="18" type="move"/>
      <point x="331" y="1" type="line"/>
    </contour>
  </outline>
</glyph>
<glyph name="dollar" format="1">
  <advance width="833"/>
  <unicode hex="0024"/>
  <outline>
    <contour>
      <point x="-1" y="199" type="move"/>
      <point x="-1" y="-3"/>
      <point x="128" y="-1"/>
      <point x="199" y="-1" type="curve" smooth="yes"/>
      <point x="199" y="-1" type="line"/>
      <point x="400" y="-1" type="line" smooth="yes"/>
      <point x="603" y="-1"/>
      <point x="600" y="131"/>
      <point x="600" y="201" type="curve" smooth="yes"/>
      <point x="600" y="201" type="line" smooth="yes"/>
      <point x="600" y="404"/>
      <point x="471" y="399"/>
      <point x="400" y="399" type="curve" smooth="yes"/>
      <point x="199" y="399" type="line"/>
      <point x="199" y="399" type="line" smooth="yes"/>
      <point x="128" y="399"/>
      <point x="-1" y="394"/>
      <point x="-1" y="597" type="curve" smooth="yes"/>
      <point x="-1" y="599" type="line" smooth="yes"/>
      <point x="-1" y="669"/>
      <point x="-6" y="799"/>
      <point x="197" y="799" type="curve" smooth="yes"/>
      <point x="398" y="799" type="line" smooth="yes"/>
      <point x="600" y="799"/>
      <point x="600" y="670"/>
      <point x="600" y="599" type="curve" smooth="yes"/>
    </contour>
    <contour>
      <point x="300" y="799" type="move"/>
      <point x="300" y="-1" type="line"/>
    </contour>
  </outline>
</glyph>
<glyph name="percent" format="1">
  <advance width="833"/>
  <unicode hex="0025"/>
  <outline>
    <contour>
      <point x="599" y="799" type="move"/>
      <point x="-1" y="-1" type="line"/>
    </contour>
    <contour>
      <point x="399" y="-1" type="line" smooth="yes"/>
      <point x="601" y="-1"/>
      <point x="600" y="129"/>
      <point x="599" y="199" type="curve" smooth="yes"/>
      <point x="399" y="199" type="line"/>
    </contour>
    <contour>
      <point x="199" y="799" type="line" smooth="yes"/>
      <point x="-3" y="799"/>
      <point x="-2" y="669"/>
      <point x="-1" y="599" type="curve" smooth="yes"/>
      <point x="199" y="599" type="line"/>
    </contour>
  </outline>
</glyph>
<glyph name="ampersand" format="1">
  <advance width="833"/>
  <unicode hex="0026"/>
  <outline>
    <contour>
      <point x="198" y="401" type="move"/>
      <point x="198" y="599" type="line" smooth="yes"/>
      <point x="198" y="801"/>
      <point x="327" y="801"/>
      <point x="398" y="801" type="curve" smooth="yes"/>
      <point x="499" y="801" type="line"/>
      <point x="499" y="603" type="line"/>
      <point x="499" y="401"/>
      <point x="370" y="401"/>
      <point x="299" y="401" type="curve"/>
      <point x="199" y="401" type="line"/>
      <point x="128" y="401"/>
      <point x="-1" y="401"/>
      <point x="-1" y="199" type="curve"/>
      <point x="-1" y="127"/>
      <point x="-1" y="1"/>
      <point x="201" y="1" type="curve" smooth="yes"/>
      <point x="598" y="400" type="line"/>
    </contour>
    <contour>
      <point x="599" y="1" type="move"/>
      <point x="299" y="401" type="line"/>
    </contour>
  </outline>
</glyph>
<glyph name="asterisk" format="1">
  <advance width="833"/>
  <unicode hex="002A"/>
  <outline>
    <contour>
      <point x="305" y="702" type="move"/>
      <point x="305" y="502" type="line"/>
      <point x="105" y="502" type="line"/>
    </contour>
    <contour>
      <point x="505" y="502" type="move"/>
      <point x="305" y="502" type="line"/>
      <point x="165" y="302" type="line"/>
    </contour>
    <contour>
      <point x="305" y="502" type="move"/>
      <point x="455" y="302" type="line"/>
    </contour>
  </outline>
</glyph>
<glyph name="period" format="1">
  <advance width="833"/>
  <unicode hex="002E"/>
  <outline>
    <contour>
      <point x="321" y="10" type="move"/>
      <point x="321" y="10"/>
      <point x="321" y="0"/>
      <point x="321" y="0" type="curve"/>
    </contour>
  </outline>
</glyph>
<glyph name="slash" format="1">
  <advance width="833"/>
  <unicode hex="002F"/>
  <outline>
    <contour>
      <point x="597" y="802" type="move"/>
      <point x="-3" y="2" type="line"/>
    </contour>
  </outline>
</glyph>
<glyph name="two" format="1">
  <advance width="833"/>
  <unicode hex="0032"/>
  <outline>
    <contour>
      <point x="600" y="0" type="move"/>
      <point x="0" y="0" type="line"/>
      <point x="0" y="200" type="line" smooth="yes"/>
      <point x="0" y="402"/>
      <point x="129" y="400"/>
      <point x="200" y="400" type="curve" smooth="yes"/>
      <point x="400" y="400" type="line" smooth="yes"/>
      <point x="471" y="400"/>
      <point x="600" y="398"/>
      <point x="600" y="600" type="curve"/>
      <point x="600" y="600"/>
      <point x="602" y="800"/>
      <point x="400" y="800" type="curve"/>
      <point x="200" y="800" type="line"/>
      <point x="200" y="800" type="line"/>
      <point x="129" y="800"/>
      <point x="0" y="802"/>
      <point x="0" y="600" type="curve" smooth="yes"/>
    </contour>
  </outline>
</glyph>
<glyph name="four" format="1">
  <advance width="833"/>
  <unicode hex="0034"/>
  <outline>
    <contour>
      <point x="597" y="600" type="move"/>
      <point x="597" y="1" type="line"/>
    </contour>
    <contour>
      <point x="597" y="100" type="move"/>
      <point x="597" y="171"/>
      <point x="599" y="300"/>
      <point x="397" y="300" type="curve"/>
      <point x="-3" y="300" type="line"/>
      <point x="297" y="800" type="line"/>
    </contour>
  </outline>
</glyph>
<glyph name="seven" format="1">
  <advance width="833"/>
  <unicode hex="0037"/>
  <outline>
    <contour>
      <point x="200" y="-3" type="move"/>
      <point x="599" y="597" type="line"/>
      <point x="599" y="668"/>
      <point x="602" y="797"/>
      <point x="399" y="797" type="curve" smooth="yes"/>
      <point x="0" y="797" type="line"/>
    </contour>
  </outline>
</glyph>
<glyph name="nine" format="1">
  <advance width="833"/>
  <unicode hex="0039"/>
  <outline>
    <contour>
      <point x="600" y="200" type="move"/>
      <point x="600" y="271"/>
      <point x="602" y="400"/>
      <point x="400" y="400" type="curve"/>
      <point x="200" y="400" type="line"/>
      <point x="-2" y="400"/>
      <point x="0" y="529"/>
      <point x="0" y="600" type="curve"/>
      <point x="0" y="802"/>
      <point x="129" y="800"/>
      <point x="200" y="800" type="curve"/>
      <point x="400" y="800" type="line"/>
      <point x="602" y="800"/>
      <point x="600" y="671"/>
      <point x="600" y="600" type="curve" smooth="yes"/>
      <point x="600" y="200" type="line" smooth="yes"/>
      <point x="600" y="129"/>
      <point x="602" y="0"/>
      <point x="400" y="0" type="curve" smooth="yes"/>
      <point x="200" y="0" type="line"/>
      <point x="129" y="0"/>
      <point x="0" y="-2"/>
      <point x="0" y="200" type="curve" smooth="yes"/>
    </contour>
  </outline>
</glyph>
<glyph name="colon" format="1">
  <advance width="833"/>
  <unicode hex="003A"/>
  <outline>
    <contour>
      <point x="331" y="1" type="move"/>
      <point x="331" y="1"/>
      <point x="331" y="5"/>
      <point x="331" y="5" type="curve"/>
    </contour>
    <contour>
      <point x="329" y="583" type="move"/>
      <point x="329" y="592" type="line"/>
    </contour>
  </outline>
</glyph>
<glyph name="semicolon" format="1">
  <advance width="833"/>
  <unicode hex="003B"/>
  <outline>
    <contour>
      <point x="329" y="583" type="move"/>
      <point x="329" y="592" type="line"/>
    </contour>
    <contour>
      <point x="329" y="192" type="move"/>
      <point x="329" y="-8" type="line"/>
      <point x="229" y="-8" type="line"/>
    </contour>
  </outline>
</glyph>
<glyph name="less" format="1">
  <advance width="833"/>
  <unicode hex="003C"/>
  <outline>
    <contour>
      <point x="474" y="503" type="move"/>
      <point x="74" y="303" type="line"/>
      <point x="474" y="103" type="line"/>
    </contour>
  </outline>
</glyph>
<glyph name="equal" format="1">
  <advance width="833"/>
  <unicode hex="003D"/>
  <outline>
    <contour>
      <point x="79" y="138" type="move"/>
      <point x="679" y="138" type="line"/>
    </contour>
    <contour>
      <point x="79" y="438" type="move"/>
      <point x="679" y="438" type="line"/>
    </contour>
  </outline>
</glyph>
<glyph name="greater" format="1">
  <advance width="833"/>
  <unicode hex="003E"/>
  <outline>
    <contour>
      <point x="114" y="520" type="move"/>
      <point x="514" y="320" type="line"/>
      <point x="114" y="120" type="line"/>
    </contour>
  </outline>
</glyph>
<glyph name="question" format="1">
  <advance width="833"/>
  <unicode hex="003F"/>
  <outline>
    <contour>
      <point x="200" y="0" type="move"/>
      <point x="200" y="0" type="line"/>
      <point x="200" y="11" type="line"/>
    </contour>
    <contour>
      <point x="200" y="200" type="move"/>
      <point x="200" y="399" type="line"/>
      <point x="300" y="399" type="line" smooth="yes"/>
      <point x="371" y="399"/>
      <point x="500" y="398"/>
      <point x="500" y="600" type="curve"/>
      <point x="500" y="671"/>
      <point x="500" y="800"/>
      <point x="298" y="800" type="curve" smooth="yes"/>
      <point x="199" y="800" type="line"/>
      <point x="199" y="800"/>
      <point x="1" y="802"/>
      <point x="1" y="599" type="curve"/>
    </contour>
  </outline>
</glyph>
<glyph name="D" format="1">
  <advance width="833"/>
  <unicode hex="0044"/>
  <outline>
    <contour>
      <point x="601" y="599" type="line" smooth="yes"/>
      <point x="601" y="670"/>
      <point x="601" y="799"/>
      <point x="399" y="799" type="curve" smooth="yes"/>
      <point x="333" y="799"/>
      <point x="1" y="799"/>
      <point x="1" y="799" type="curve" smooth="yes"/>
      <point x="1" y="-1" type="line"/>
      <point x="401" y="-1" type="line" smooth="yes"/>
      <point x="472" y="-1"/>
      <point x="601" y="-3"/>
      <point x="601" y="199" type="curve" smooth="yes"/>
    </contour>
  </outline>
</glyph>
<glyph name="G" format="1">
  <advance width="833"/>
  <unicode hex="0047"/>
  <outline>
    <contour>
      <point x="603" y="604" type="move"/>
      <point x="603" y="675"/>
      <point x="603" y="804"/>
      <point x="401" y="804" type="curve" smooth="yes"/>
      <point x="201" y="804" type="line" smooth="yes"/>
      <point x="-2" y="804"/>
      <point x="3" y="674"/>
      <point x="3" y="604" type="curve" smooth="yes"/>
      <point x="3" y="204" type="line" smooth="yes"/>
      <point x="3" y="133"/>
      <point x="3" y="4"/>
      <point x="205" y="4" type="curve" smooth="yes"/>
      <point x="405" y="4" type="line" smooth="yes"/>
      <point x="608" y="4"/>
      <point x="603" y="133"/>
      <point x="603" y="204" type="curve" smooth="yes"/>
      <point x="603" y="404" type="line"/>
      <point x="403" y="404" type="line" smooth="yes"/>
      <point x="201" y="404"/>
      <point x="203" y="533"/>
      <point x="203" y="604" type="curve" smooth="yes"/>
    </contour>
  </outline>
</glyph>
<glyph name="M" format="1">
  <advance width="833"/>
  <unicode hex="004D"/>
  <outline>
    <contour>
      <point x="601" y="-1" type="move"/>
      <point x="601" y="799" type="line"/>
      <point x="501" y="799" type="line" smooth="yes"/>
      <point x="430" y="799"/>
      <point x="313" y="801"/>
      <point x="308" y="599" type="curve" smooth="yes"/>
      <point x="301" y="299" type="line"/>
      <point x="294" y="599" type="line" smooth="yes"/>
      <point x="289" y="801"/>
      <point x="171" y="799"/>
      <point x="101" y="799" type="curve" smooth="yes"/>
      <point x="1" y="799" type="line"/>
      <point x="1" y="-1" type="line"/>
    </contour>
  </outline>
</glyph>
<glyph name="N" format="1">
  <advance width="833"/>
  <unicode hex="004E"/>
  <outline>
    <contour>
      <point x="596" y="799" type="move"/>
      <point x="596" y="-1" type="line"/>
      <point x="496" y="-1" type="line" smooth="yes"/>
      <point x="425" y="-1"/>
      <point x="296" y="-3"/>
      <point x="296" y="199" type="curve" smooth="yes"/>
      <point x="296" y="599" type="line" smooth="yes"/>
      <point x="296" y="801"/>
      <point x="166" y="799"/>
      <point x="96" y="799" type="curve" smooth="yes"/>
      <point x="-4" y="799" type="line"/>
      <point x="-4" y="-1" type="line"/>
    </contour>
  </outline>
</glyph>
<glyph name="O" format="1">
  <advance width="833"/>
  <unicode hex="004F"/>
  <outline>
    <contour>
      <point x="404" y="-1" type="line" smooth="yes"/>
      <point x="606" y="-1"/>
      <point x="601" y="128"/>
      <point x="601" y="199" type="curve" smooth="yes"/>
      <point x="601" y="599" type="line" smooth="yes"/>
      <point x="601" y="670"/>
      <point x="601" y="799"/>
      <point x="399" y="799" type="curve" smooth="yes"/>
      <point x="198" y="799" type="line" smooth="yes"/>
      <point x="-5" y="799"/>
      <point x="0" y="669"/>
      <point x="0" y="599" type="curve" smooth="yes"/>
      <point x="0" y="199" type="line" smooth="yes"/>
      <point x="0" y="128"/>
      <point x="0" y="-1"/>
      <point x="202" y="-1" type="curve" smooth="yes"/>
    </contour>
  </outline>
</glyph>
<glyph name="P" format="1">
  <advance width="833"/>
  <unicode hex="0050"/>
  <outline>
    <contour>
      <point x="0" y="99" type="move"/>
      <point x="0" y="170"/>
      <point x="-2" y="307"/>
      <point x="200" y="307" type="curve"/>
      <point x="401" y="307" type="line"/>
      <point x="604" y="307"/>
      <point x="601" y="436"/>
      <point x="601" y="507" type="curve"/>
      <point x="601" y="603" type="line"/>
      <point x="601" y="674"/>
      <point x="601" y="803"/>
      <point x="399" y="803" type="curve" smooth="yes"/>
      <point x="198" y="803" type="line" smooth="yes"/>
      <point x="-5" y="803"/>
      <point x="0" y="673"/>
      <point x="0" y="603" type="curve" smooth="yes"/>
      <point x="0" y="3" type="line"/>
    </contour>
  </outline>
</glyph>
<glyph name="T" format="1">
  <advance width="833"/>
  <unicode hex="0054"/>
  <outline>
    <contour>
      <point x="302" y="0" type="move"/>
      <point x="302" y="600" type="line" smooth="yes"/>
      <point x="302" y="670"/>
      <point x="302" y="793"/>
      <point x="504" y="793" type="curve"/>
      <point x="602" y="800" type="line"/>
      <point x="2" y="800" type="line"/>
    </contour>
  </outline>
</glyph>
<glyph name="U" format="1">
  <advance width="833"/>
  <unicode hex="0055"/>
  <outline>
    <contour>
      <point x="598" y="799" type="move"/>
      <point x="598" y="199" type="line" smooth="yes"/>
      <point x="598" y="128"/>
      <point x="603" y="-1"/>
      <point x="400" y="-1" type="curve" smooth="yes"/>
      <point x="201" y="-1" type="line" smooth="yes"/>
      <point x="-1" y="-1"/>
      <point x="-1" y="128"/>
      <point x="-1" y="199" type="curve" smooth="yes"/>
      <point x="-1" y="799" type="line"/>
    </contour>
  </outline>
</glyph>
<glyph name="V" format="1">
  <advance width="833"/>
  <unicode hex="0056"/>
  <outline>
    <contour>
      <point x="0" y="800" type="move"/>
      <point x="0" y="200" type="line" smooth="yes"/>
      <point x="71" y="200"/>
      <point x="200" y="200"/>
      <point x="200" y="0" type="curve"/>
      <point x="400" y="0" type="line"/>
      <point x="401" y="0"/>
      <point x="402" y="0"/>
      <point x="403" y="0" type="curve" smooth="yes"/>
      <point x="602" y="1"/>
      <point x="600" y="129"/>
      <point x="600" y="200" type="curve" smooth="yes"/>
      <point x="600" y="800" type="line"/>
    </contour>
  </outline>
</glyph>
<glyph name="bracketright" format="1">
  <advance width="833"/>
  <unicode hex="005D"/>
  <outline>
    <contour>
      <point x="69" y="799" type="move"/>
      <point x="369" y="799" type="line"/>
      <point x="369" y="-1" type="line"/>
      <point x="69" y="-1" type="line"/>
    </contour>
  </outline>
</glyph>
<glyph name="asciicircum" format="1">
  <advance width="833"/>
  <unicode hex="005E"/>
  <outline>
    <contour>
      <point x="0" y="502" type="move"/>
      <point x="300" y="702" type="line"/>
      <point x="600" y="502" type="line"/>
    </contour>
  </outline>
</glyph>
<glyph name="f" format="1">
  <advance width="833"/>
  <unicode hex="0066"/>
  <outline>
    <contour>
      <point x="600" y="606" type="move"/>
      <point x="600" y="809"/>
      <point x="468" y="804"/>
      <point x="398" y="804" type="curve"/>
      <point x="199" y="804" type="line"/>
      <point x="-4" y="804"/>
      <point x="1" y="672"/>
      <point x="1" y="602" type="curve"/>
      <point x="1" y="399"/>
      <point x="130" y="404"/>
      <point x="201" y="404" type="curve"/>
      <point x="130" y="404"/>
      <point x="2" y="404"/>
      <point x="2" y="202" type="curve"/>
      <point x="1" y="4" type="line"/>
    </contour>
    <contour>
      <point x="201" y="404" type="move"/>
      <point x="401" y="404" type="line"/>
    </contour>
  </outline>
</glyph>
<glyph name="k" format="1">
  <advance width="833"/>
  <unicode hex="006B"/>
  <outline>
    <contour>
      <point x="400" y="404" type="move"/>
      <point x="602" y="404"/>
      <point x="599" y="533"/>
      <point x="599" y="604" type="curve" smooth="yes"/>
      <point x="600" y="804" type="line"/>
    </contour>
    <contour>
      <point x="600" y="4" type="move"/>
      <point x="600" y="206" type="line" smooth="yes"/>
      <point x="600" y="409"/>
      <point x="470" y="404"/>
      <point x="400" y="404" type="curve"/>
      <point x="200" y="404" type="line"/>
      <point x="-2" y="404"/>
      <point x="12" y="274"/>
      <point x="9" y="204" type="curve" smooth="yes"/>
      <point x="0" y="4" type="line"/>
      <point x="0" y="804" type="line"/>
    </contour>
  </outline>
</glyph>
<glyph name="l" format="1">
  <advance width="833"/>
  <unicode hex="006C"/>
  <outline>
    <contour>
      <point x="0" y="800" type="move"/>
      <point x="0" y="200" type="line" smooth="yes"/>
      <point x="0" y="-2"/>
      <point x="129" y="0"/>
      <point x="200" y="0" type="curve" smooth="yes"/>
      <point x="600" y="0" type="line"/>
    </contour>
  </outline>
</glyph>
<glyph name="w" format="1">
  <advance width="833"/>
  <unicode hex="0077"/>
  <outline>
    <contour>
      <point x="-1" y="800" type="move"/>
      <point x="-1" y="0" type="line"/>
      <point x="99" y="0" type="line" smooth="yes"/>
      <point x="169" y="0"/>
      <point x="289" y="-2"/>
      <point x="293" y="200" type="curve" smooth="yes"/>
      <point x="299" y="500" type="line"/>
      <point x="303" y="200" type="line" smooth="yes"/>
      <point x="306" y="-2"/>
      <point x="428" y="0"/>
      <point x="499" y="0" type="curve" smooth="yes"/>
      <point x="599" y="0" type="line"/>
      <point x="599" y="800" type="line"/>
    </contour>
  </outline>
</glyph>
<glyph name="y" format="1">
  <advance width="833"/>
  <unicode hex="0079"/>
  <outline>
    <contour>
      <point x="1" y="798" type="move"/>
      <point x="1" y="498" type="line" smooth="yes"/>
      <point x="1" y="427"/>
      <point x="1" y="298"/>
      <point x="203" y="298" type="curve" smooth="yes"/>
      <point x="404" y="298" type="line" smooth="yes"/>
      <point x="605" y="298"/>
      <point x="587" y="427"/>
      <point x="590" y="498" type="curve" smooth="yes"/>
      <point x="601" y="798" type="line"/>
      <point x="601" y="201" type="line" smooth="yes"/>
      <point x="601" y="0"/>
      <point x="472" y="0"/>
      <point x="401" y="0" type="curve" smooth="yes"/>
      <point x="200" y="0" type="line"/>
      <point x="1" y="1" type="line"/>
    </contour>
  </outline>
</glyph>
<glyph name="braceleft" format="1">
  <advance width="833"/>
  <unicode hex="007B"/>
  <outline>
    <contour>
      <point x="500" y="798" type="move"/>
      <point x="400" y="798" type="line" smooth="yes"/>
      <point x="198" y="798"/>
      <point x="200" y="669"/>
      <point x="200" y="598" type="curve"/>
      <point x="200" y="527"/>
      <point x="202" y="398"/>
      <point x="0" y="398" type="curve"/>
      <point x="202" y="398"/>
      <point x="200" y="269"/>
      <point x="200" y="198" type="curve"/>
      <point x="200" y="127"/>
      <point x="198" y="-2"/>
      <point x="400" y="-2" type="curve" smooth="yes"/>
      <point x="500" y="-2" type="line"/>
    </contour>
  </outline>
</glyph>
<glyph name="bar" format="1">
  <advance width="833"/>
  <unicode hex="007C"/>
  <outline>
    <contour>
      <point x="309" y="801" type="move"/>
      <point x="309" y="1" type="line"/>
    </contour>
  </outline>
</glyph>
<glyph name="braceright" format="1">
  <advance width="833"/>
  <unicode hex="007D"/>
  <outline>
    <contour>
      <point x="1" y="799" type="move"/>
      <point x="101" y="799" type="line" smooth="yes"/>
      <point x="303" y="799"/>
      <point x="301" y="670"/>
      <point x="301" y="599" type="curve"/>
      <point x="301" y="528"/>
      <point x="299" y="399"/>
      <point x="501" y="399" type="curve"/>
      <point x="299" y="399"/>
      <point x="301" y="270"/>
      <point x="301" y="199" type="curve"/>
      <point x="301" y="128"/>
      <point x="303" y="-1"/>
      <point x="101" y="-1" type="curve" smooth="yes"/>
      <point x="1" y="-1" type="line"/>
    </contour>
  </outline>
</glyph>
<glyph name="asciitilde" format="1">
  <advance width="833"/>
  <unicode hex="007E"/>
  <outline>
    <contour>
      <point x="100" y="103" type="move"/>
      <point x="100" y="174"/>
      <point x="98" y="303"/>
      <point x="300" y="303" type="curve" smooth="yes"/>
      <point x="400" y="303" type="line"/>
      <point x="400" y="103" type="line"/>
      <point x="500" y="103" type="line" smooth="yes"/>
      <point x="702" y="103"/>
      <point x="700" y="231"/>
      <point x="700" y="303" type="curve" smooth="yes"/>
    </contour>
  </outline>
</glyph>
<glyph name="cent" format="1">
  <advance width="833"/>
  <unicode hex="00A2"/>
  <outline>
    <contour>
      <point x="400" y="400" type="move"/>
      <point x="200" y="400" type="line" smooth="yes"/>
      <point x="129" y="400"/>
      <point x="0" y="402"/>
      <point x="0" y="200" type="curve"/>
      <point x="0" y="129"/>
      <point x="-2" y="0"/>
      <point x="200" y="0" type="curve" smooth="yes"/>
      <point x="400" y="0" type="line"/>
    </contour>
    <contour>
      <point x="300" y="400" type="move"/>
      <point x="300" y="500" type="line"/>
    </contour>
    <contour>
      <point x="300" y="0" type="move"/>
      <point x="300" y="-100" type="line"/>
    </contour>
  </outline>
</glyph>
<glyph name="sterling" format="1">
  <advance width="833"/>
  <unicode hex="00A3"/>
  <outline>
    <contour>
      <point x="399" y="1" type="move"/>
      <point x="292" y="1" type="line"/>
      <point x="-1" y="1" type="line"/>
      <point x="70" y="1"/>
      <point x="199" y="-1"/>
      <point x="199" y="196" type="curve"/>
      <point x="199" y="601" type="line" smooth="yes"/>
      <point x="199" y="803"/>
      <point x="328" y="801"/>
      <point x="399" y="801" type="curve" smooth="yes"/>
      <point x="399" y="801" type="line"/>
    </contour>
    <contour>
      <point x="349" y="401" type="move"/>
      <point x="49" y="401" type="line"/>
    </contour>
  </outline>
</glyph>
<glyph name="section" format="1">
  <advance width="833"/>
  <unicode hex="00A7"/>
  <outline>
    <contour>
      <point x="525" y="227" type="move"/>
      <point x="566" y="252"/>
      <point x="598" y="302"/>
      <point x="598" y="403" type="curve"/>
      <point x="598" y="403" type="line"/>
      <point x="-2" y="603" type="line"/>
      <point x="-2" y="805"/>
      <point x="127" y="803"/>
      <point x="198" y="803" type="curve"/>
      <point x="398" y="803" type="line"/>
      <point x="600" y="803"/>
      <point x="598" y="674"/>
      <point x="598" y="603" type="curve" smooth="yes"/>
    </contour>
    <contour>
      <point x="71" y="579" type="move"/>
      <point x="30" y="554"/>
      <point x="-2" y="504"/>
      <point x="-2" y="403" type="curve"/>
      <point x="598" y="203" type="line" smooth="yes"/>
      <point x="598" y="1"/>
      <point x="469" y="3"/>
      <point x="398" y="3" type="curve"/>
      <point x="198" y="3" type="line"/>
      <point x="-4" y="3"/>
      <point x="-2" y="132"/>
      <point x="-2" y="203" type="curve" smooth="yes"/>
    </contour>
  </outline>
</glyph>
<glyph name="guillemotleft" format="1">
  <advance width="833"/>
  <unicode hex="00AB"/>
  <outline>
    <contour>
      <point x="200" y="397" type="move"/>
      <point x="0" y="197" type="line"/>
      <point x="200" y="-3" type="line"/>
    </contour>
    <contour>
      <point x="400" y="397" type="move"/>
      <point x="200" y="197" type="line"/>
      <point x="400" y="-3" type="line"/>
    </contour>
  </outline>
</glyph>
<glyph name="degree" format="1">
  <advance width="833"/>
  <unicode hex="00B0"/>
  <outline>
    <contour>
      <point x="440" y="513" type="line"/>
      <point x="440" y="442"/>
      <point x="442" y="313"/>
      <point x="240" y="313" type="curve" smooth="yes"/>
      <point x="240" y="513" type="line"/>
      <point x="240" y="584"/>
      <point x="238" y="713"/>
      <point x="440" y="713" type="curve" smooth="yes"/>
    </contour>
  </outline>
</glyph>
<glyph name="paragraph" format="1">
  <advance width="833"/>
  <unicode hex="00B6"/>
  <outline>
    <contour>
      <point x="295" y="0" type="move"/>
      <point x="295" y="800" type="line"/>
      <point x="295" y="400" type="line"/>
      <point x="195" y="400" type="line"/>
      <point x="124" y="400"/>
      <point x="-5" y="398"/>
      <point x="-5" y="600" type="curve"/>
      <point x="-5" y="802"/>
      <point x="124" y="800"/>
      <point x="195" y="800" type="curve"/>
      <point x="295" y="800" type="line"/>
      <point x="495" y="800" type="line"/>
      <point x="495" y="0" type="line"/>
    </contour>
  </outline>
</glyph>
<glyph name="Ccedilla" format="1">
  <advance width="833"/>
  <unicode hex="00C7"/>
  <outline>
    <contour>
      <point x="600" y="601" type="move" smooth="yes"/>
      <point x="600" y="672"/>
      <point x="600" y="801"/>
      <point x="398" y="801" type="curve" smooth="yes"/>
      <point x="198" y="801" type="line" smooth="yes"/>
      <point x="-5" y="801"/>
      <point x="0" y="675"/>
      <point x="0" y="605" type="curve" smooth="yes"/>
      <point x="0" y="201" type="line"/>
      <point x="202" y="201"/>
      <point x="200" y="72"/>
      <point x="200" y="1" type="curve"/>
      <point x="400" y="1" type="line" smooth="yes"/>
      <point x="471" y="1"/>
      <point x="600" y="-1"/>
      <point x="600" y="201" type="curve" smooth="yes"/>
    </contour>
  </outline>
</glyph>
<glyph name="Icircumflex" format="1">
  <advance width="833"/>
  <unicode hex="00CE"/>
  <outline>
    <contour>
      <point x="-4" y="-1" type="move"/>
      <point x="596" y="-1" type="line"/>
      <point x="496" y="7" type="line" smooth="yes"/>
      <point x="425" y="13"/>
      <point x="296" y="-5"/>
      <point x="296" y="198" type="curve" smooth="yes"/>
      <point x="296" y="600" type="line" smooth="yes"/>
      <point x="296" y="803"/>
      <point x="166" y="787"/>
      <point x="96" y="792" type="curve" smooth="yes"/>
      <point x="-4" y="799" type="line"/>
      <point x="596" y="799" type="line"/>
    </contour>
    <contour>
      <point x="0" y="928" type="move"/>
      <point x="300" y="1128" type="line"/>
      <point x="600" y="928" type="line"/>
    </contour>
  </outline>
</glyph>
<glyph name="Ntilde" format="1">
  <advance width="833"/>
  <unicode hex="00D1"/>
  <outline>
    <contour>
      <point x="596" y="799" type="move"/>
      <point x="596" y="-1" type="line"/>
      <point x="496" y="-1" type="line" smooth="yes"/>
      <point x="425" y="-1"/>
      <point x="296" y="-3"/>
      <point x="296" y="199" type="curve" smooth="yes"/>
      <point x="296" y="599" type="line" smooth="yes"/>
      <point x="296" y="801"/>
      <point x="166" y="799"/>
      <point x="96" y="799" type="curve" smooth="yes"/>
      <point x="-4" y="799" type="line"/>
      <point x="-4" y="-1" type="line"/>
    </contour>
    <contour>
      <point x="0" y="928" type="move"/>
      <point x="0" y="999"/>
      <point x="-2" y="1128"/>
      <point x="200" y="1128" type="curve" smooth="yes"/>
      <point x="300" y="1128" type="line"/>
      <point x="300" y="928" type="line"/>
      <point x="400" y="928" type="line" smooth="yes"/>
      <point x="602" y="928"/>
      <point x="600" y="1056"/>
      <point x="600" y="1128" type="curve" smooth="yes"/>
    </contour>
  </outline>
</glyph>
<glyph name="Otilde" format="1">
  <advance width="833"/>
  <unicode hex="00D5"/>
  <outline>
    <contour>
      <point x="404" y="-1" type="line" smooth="yes"/>
      <point x="606" y="-1"/>
      <point x="601" y="128"/>
      <point x="601" y="199" type="curve" smooth="yes"/>
      <point x="601" y="599" type="line" smooth="yes"/>
      <point x="601" y="670"/>
      <point x="601" y="799"/>
      <point x="399" y="799" type="curve" smooth="yes"/>
      <point x="198" y="799" type="line" smooth="yes"/>
      <point x="-5" y="799"/>
      <point x="0" y="669"/>
      <point x="0" y="599" type="curve" smooth="yes"/>
      <point x="0" y="199" type="line" smooth="yes"/>
      <point x="0" y="128"/>
      <point x="0" y="-1"/>
      <point x="202" y="-1" type="curve" smooth="yes"/>
    </contour>
    <contour>
      <point x="0" y="928" type="move"/>
      <point x="0" y="999"/>
      <point x="-2" y="1128"/>
      <point x="200" y="1128" type="curve" smooth="yes"/>
      <point x="300" y="1128" type="line"/>
      <point x="300" y="928" type="line"/>
      <point x="400" y="928" type="line" smooth="yes"/>
      <point x="602" y="928"/>
      <point x="600" y="1056"/>
      <point x="600" y="1128" type="curve" smooth="yes"/>
    </contour>
  </outline>
</glyph>
<glyph name="ecircumflex" format="1">
  <advance width="833"/>
  <unicode hex="00EA"/>
  <outline>
    <contour>
      <point x="0" y="928" type="move"/>
      <point x="300" y="1128" type="line"/>
      <point x="600" y="928" type="line"/>
    </contour>
    <contour>
      <point x="604" y="602" type="move"/>
      <point x="604" y="805"/>
      <point x="472" y="800"/>
      <point x="402" y="800" type="curve"/>
      <point x="203" y="800" type="line"/>
      <point x="0" y="800"/>
      <point x="5" y="668"/>
      <point x="5" y="598" type="curve"/>
      <point x="5" y="427"/>
      <point x="97" y="405"/>
      <point x="169" y="402" type="curve" smooth="yes"/>
      <point x="182" y="402"/>
      <point x="394" y="400"/>
      <point x="405" y="400" type="curve"/>
      <point x="394" y="400"/>
      <point x="181" y="398"/>
      <point x="168" y="397" type="curve" smooth="yes"/>
      <point x="97" y="393"/>
      <point x="6" y="369"/>
      <point x="6" y="198" type="curve"/>
      <point x="6" y="-5"/>
      <point x="139" y="0"/>
      <point x="208" y="0" type="curve"/>
      <point x="405" y="0" type="line" smooth="yes"/>
    </contour>
    <contour>
      <point x="605" y="196" type="move"/>
      <point x="605" y="126"/>
      <point x="610" y="0"/>
      <point x="407" y="0" type="curve"/>
    </contour>
  </outline>
</glyph>
<glyph name="ugrave" format="1">
  <advance width="833"/>
  <unicode hex="00F9"/>
  <outline>
    <contour>
      <point x="300" y="928" type="move"/>
      <point x="0" y="1128" type="line"/>
    </contour>
    <contour>
      <point x="598" y="799" type="move"/>
      <point x="598" y="199" type="line" smooth="yes"/>
      <point x="598" y="128"/>
      <point x="603" y="-1"/>
      <point x="400" y="-1" type="curve" smooth="yes"/>
      <point x="201" y="-1" type="line" smooth="yes"/>
      <point x="-1" y="-1"/>
      <point x="-1" y="128"/>
      <point x="-1" y="199" type="curve" smooth="yes"/>
      <point x="-1" y="799" type="line"/>
    </contour>
  </outline>
</glyph>
<glyph name="circumflex" format="1">
  <advance width="833"/>
  <unicode hex="02C6"/>
  <outline>
    <contour>
      <point x="0" y="928" type="move"/>
      <point x="300" y="1128" type="line"/>
      <point x="600" y="928" type="line"/>
    </contour>
  </outline>
</glyph>
<glyph name="emdash" format="1">
  <advance width="833"/>
  <unicode hex="2014"/>
  <outline>
    <contour>
      <point x="85" y="272" type="move"/>
      <point x="485" y="272" type="line"/>
    </contour>
  </outline>
</glyph>
<glyph name="quotedblright" format="1">
  <advance width="833"/>
  <unicode hex="201D"/>
  <outline>
    <contour>
      <point x="104" y="799" type="move"/>
      <point x="104" y="599" type="line"/>
      <point x="4" y="599" type="line"/>
    </contour>
    <contour>
      <point x="204" y="799" type="move"/>
      <point x="204" y="599" type="line"/>
      <point x="104" y="599" type="line"/>
    </contour>
  </outline>
</glyph>
<glyph name="minus" format="1">
  <advance width="833"/>
  <unicode hex="2212"/>
  <outline>
    <contour>
      <point x="11" y="322" type="move"/>
      <point x="411" y="322" type="line"/>
    </contour>
  </outline>
</glyph>
